# xmcd
#
# Track frame offsets:
#	150
#	13703
#	24903
#	38312
#	58834
#	73423
#	85607
#	100715
#	115022
#	125726
#	141799
#	157645
#	171003
#	183718
#	199939
#	209288
#	221573
#	234977
#	250913
#	264601
#	277283
#	291502
#	304869
#	318491
#
# Disc length: 4430 seconds
# Revision: 0
# Processed by: cddbd v1.5.2PL0 Copyright (c) Steve Scherf et al.
# Submitted via: dBpowerAMP V12.0
#
DISCID=61114c18
DTITLE=Various Artist - A Tribute to John D. Loudermilk
DYEAR=2017
DGENRE=Country
TTITLE0=Harry Stinson - Everybody Knows
TTITLE1=Rodney Crowell - Tobacco Road
TTITLE2=Pam Rose/Mary Ann Kennedy/Emmylou Harris - Where Have They Gone
TTITLE3=Quicksilver/Doyle Lawson - Blue Train
TTITLE4=Tommy Emmanuel - Windy and Warm
TTITLE5=Rosanne Cash - Then You Can Tell Me Goodbye
TTITLE6=John Jorgenson - Midnight Bus
TTITLE7=Whites/Ricky Skaggs, The - Heaven Fell Last Night
TTITLE8=Herb Pedersen - It's My Time
TTITLE9=Adriel Denae/Cory Chisel - Ebony Eyes
TTITLE10=Jimmy Hall - Bad News
TTITLE11=Mike Loudermilk - Abilene
TTITLE12=Whites/Ricky Skaggs, The - Waterloo
TTITLE13=Deborah Allen - Sad Movies
TTITLE14=Beth Nielsen Chapman - Language of Love
TTITLE15=Lee Roy Parnell - Mr. Jones
TTITLE16=Bobby Braddock - Break My Mind
TTITLE17=Buddy Greene - Big Daddy's Alabama Bound
TTITLE18=John McFee - Indian Reservation
TTITLE19=Beth Hooker - Turn Me On
TTITLE20=Becky Hobbs - Talk Back Tremblin' Lips
TTITLE21=Claudia Church - Sunglasses
TTITLE22=Norro Wilson - The Great Snowman
TTITLE23=John Cowan - I Wanna Live
EXTD=
EXTT0=
EXTT1=
EXTT2=
EXTT3=
EXTT4=
EXTT5=
EXTT6=
EXTT7=
EXTT8=
EXTT9=
EXTT10=
EXTT11=
EXTT12=
EXTT13=
EXTT14=
EXTT15=
EXTT16=
EXTT17=
EXTT18=
EXTT19=
EXTT20=
EXTT21=
EXTT22=
EXTT23=
PLAYORDER=
